M48
; DRILL file {KiCad 7.0.7} date Wed Dec 20 18:59:52 2023
; FORMAT={-:-/ absolute / metric / decimal}
; #@! TF.CreationDate,2023-12-20T18:59:52-05:00
; #@! TF.GenerationSoftware,Kicad,Pcbnew,7.0.7
; #@! TF.FileFunction,MixedPlating,1,2
FMAT,2
METRIC
; #@! TA.AperFunction,Plated,PTH,ViaDrill
T1C0.300
; #@! TA.AperFunction,Plated,PTH,ViaDrill
T2C0.400
; #@! TA.AperFunction,Plated,PTH,ComponentDrill
T3C0.600
; #@! TA.AperFunction,Plated,PTH,ComponentDrill
T4C1.000
; #@! TA.AperFunction,NonPlated,NPTH,ComponentDrill
T5C0.650
; #@! TA.AperFunction,NonPlated,NPTH,ComponentDrill
T6C0.900
; #@! TA.AperFunction,NonPlated,NPTH,ComponentDrill
T7C2.200
%
G90
G05
T1
X42.926Y-69.088
X43.688Y-64.008
X49.53Y-59.69
X49.53Y-78.994
X51.562Y-78.994
X53.402Y-76.454
X54.801Y-76.454
X56.134Y-57.658
X64.008Y-77.597
X64.262Y-72.898
X64.262Y-73.914
X68.072Y-76.2
X71.374Y-61.722
X72.898Y-74.676
T2
X40.386Y-59.69
X46.228Y-65.024
X46.228Y-67.31
X46.99Y-70.866
X46.99Y-74.422
X47.498Y-63.754
X51.689Y-68.072
X53.594Y-73.152
X56.642Y-70.104
X61.214Y-65.278
X61.722Y-78.994
X62.484Y-64.262
X64.262Y-67.818
X65.786Y-62.23
X66.548Y-70.612
X69.978Y-68.03
X70.993Y-74.93
X71.12Y-73.152
X74.422Y-73.406
T4
X46.736Y-55.118
X47.498Y-81.788
X49.276Y-55.118
X50.038Y-81.788
X51.816Y-55.118
X52.578Y-81.788
X54.356Y-55.118
X55.118Y-81.788
X59.436Y-55.118
X61.976Y-55.118
X64.516Y-55.118
X67.056Y-55.118
T5
X69.756Y-64.422
X69.756Y-70.202
T6
X38.1Y-61.77
X38.1Y-64.77
T7
X38.608Y-55.372
X38.608Y-81.788
X73.406Y-55.372
X73.406Y-81.788
T3
G00X68.676Y-62.992
M15
G01X69.776Y-62.992
M16
G05
G00X68.676Y-71.632
M15
G01X69.776Y-71.632
M16
G05
G00X73.106Y-62.992
M15
G01X73.706Y-62.992
M16
G05
G00X73.106Y-71.632
M15
G01X73.706Y-71.632
M16
G05
T0
M30
