%TF.GenerationSoftware,KiCad,Pcbnew,7.0.7*%
%TF.CreationDate,2023-12-20T18:59:57-05:00*%
%TF.ProjectId,stm32f1,73746d33-3266-4312-9e6b-696361645f70,rev?*%
%TF.SameCoordinates,Original*%
%TF.FileFunction,Soldermask,Top*%
%TF.FilePolarity,Negative*%
%FSLAX46Y46*%
G04 Gerber Fmt 4.6, Leading zero omitted, Abs format (unit mm)*
G04 Created by KiCad (PCBNEW 7.0.7) date 2023-12-20 18:59:57*
%MOMM*%
%LPD*%
G01*
G04 APERTURE LIST*
G04 Aperture macros list*
%AMRoundRect*
0 Rectangle with rounded corners*
0 $1 Rounding radius*
0 $2 $3 $4 $5 $6 $7 $8 $9 X,Y pos of 4 corners*
0 Add a 4 corners polygon primitive as box body*
4,1,4,$2,$3,$4,$5,$6,$7,$8,$9,$2,$3,0*
0 Add four circle primitives for the rounded corners*
1,1,$1+$1,$2,$3*
1,1,$1+$1,$4,$5*
1,1,$1+$1,$6,$7*
1,1,$1+$1,$8,$9*
0 Add four rect primitives between the rounded corners*
20,1,$1+$1,$2,$3,$4,$5,0*
20,1,$1+$1,$4,$5,$6,$7,0*
20,1,$1+$1,$6,$7,$8,$9,0*
20,1,$1+$1,$8,$9,$2,$3,0*%
G04 Aperture macros list end*
%ADD10R,1.700000X1.700000*%
%ADD11O,1.700000X1.700000*%
%ADD12RoundRect,0.250000X-0.250000X-0.475000X0.250000X-0.475000X0.250000X0.475000X-0.250000X0.475000X0*%
%ADD13RoundRect,0.140000X-0.140000X-0.170000X0.140000X-0.170000X0.140000X0.170000X-0.140000X0.170000X0*%
%ADD14RoundRect,0.140000X0.170000X-0.140000X0.170000X0.140000X-0.170000X0.140000X-0.170000X-0.140000X0*%
%ADD15RoundRect,0.218750X-0.256250X0.218750X-0.256250X-0.218750X0.256250X-0.218750X0.256250X0.218750X0*%
%ADD16R,1.200000X1.400000*%
%ADD17RoundRect,0.250000X0.475000X-0.250000X0.475000X0.250000X-0.475000X0.250000X-0.475000X-0.250000X0*%
%ADD18RoundRect,0.135000X-0.135000X-0.185000X0.135000X-0.185000X0.135000X0.185000X-0.135000X0.185000X0*%
%ADD19R,1.500000X2.000000*%
%ADD20R,3.800000X2.000000*%
%ADD21RoundRect,0.135000X0.185000X-0.135000X0.185000X0.135000X-0.185000X0.135000X-0.185000X-0.135000X0*%
%ADD22RoundRect,0.140000X0.140000X0.170000X-0.140000X0.170000X-0.140000X-0.170000X0.140000X-0.170000X0*%
%ADD23R,0.800000X1.000000*%
%ADD24C,0.900000*%
%ADD25R,1.500000X0.700000*%
%ADD26RoundRect,0.135000X-0.185000X0.135000X-0.185000X-0.135000X0.185000X-0.135000X0.185000X0.135000X0*%
%ADD27C,2.200000*%
%ADD28RoundRect,0.135000X0.135000X0.185000X-0.135000X0.185000X-0.135000X-0.185000X0.135000X-0.185000X0*%
%ADD29RoundRect,0.140000X-0.170000X0.140000X-0.170000X-0.140000X0.170000X-0.140000X0.170000X0.140000X0*%
%ADD30C,0.650000*%
%ADD31R,1.450000X0.600000*%
%ADD32R,1.450000X0.300000*%
%ADD33O,2.100000X1.000000*%
%ADD34O,1.600000X1.000000*%
%ADD35RoundRect,0.075000X-0.662500X-0.075000X0.662500X-0.075000X0.662500X0.075000X-0.662500X0.075000X0*%
%ADD36RoundRect,0.075000X-0.075000X-0.662500X0.075000X-0.662500X0.075000X0.662500X-0.075000X0.662500X0*%
%ADD37RoundRect,0.225000X-0.225000X-0.250000X0.225000X-0.250000X0.225000X0.250000X-0.225000X0.250000X0*%
G04 APERTURE END LIST*
D10*
%TO.C,J2*%
X67056000Y-55118000D03*
D11*
X64516000Y-55118000D03*
X61976000Y-55118000D03*
X59436000Y-55118000D03*
%TD*%
D12*
%TO.C,C12*%
X60838000Y-73406000D03*
X62738000Y-73406000D03*
%TD*%
D13*
%TO.C,C1*%
X51308000Y-61468000D03*
X52268000Y-61468000D03*
%TD*%
D14*
%TO.C,C6*%
X48510000Y-68834000D03*
X48510000Y-67874000D03*
%TD*%
D15*
%TO.C,FB1*%
X49276000Y-71882000D03*
X49276000Y-73457000D03*
%TD*%
D16*
%TO.C,Y1*%
X41992000Y-65558000D03*
X41992000Y-67758000D03*
X43692000Y-67758000D03*
X43692000Y-65558000D03*
%TD*%
D17*
%TO.C,C13*%
X66548000Y-78486000D03*
X66548000Y-76586000D03*
%TD*%
D14*
%TO.C,C10*%
X45212000Y-65928000D03*
X45212000Y-64968000D03*
%TD*%
D18*
%TO.C,R5*%
X72390000Y-73406000D03*
X73410000Y-73406000D03*
%TD*%
D19*
%TO.C,U2*%
X64022000Y-75996000D03*
X61722000Y-75996000D03*
D20*
X61722000Y-82296000D03*
D19*
X59422000Y-75996000D03*
%TD*%
D10*
%TO.C,J4*%
X47498000Y-81788000D03*
D11*
X50038000Y-81788000D03*
X52578000Y-81788000D03*
X55118000Y-81788000D03*
%TD*%
D21*
%TO.C,R4*%
X41656000Y-60456000D03*
X41656000Y-59436000D03*
%TD*%
%TO.C,R1*%
X69977000Y-75948000D03*
X69977000Y-74928000D03*
%TD*%
D22*
%TO.C,C8*%
X48006000Y-73497500D03*
X47046000Y-73497500D03*
%TD*%
D18*
%TO.C,R3*%
X53082000Y-77724000D03*
X54102000Y-77724000D03*
%TD*%
D10*
%TO.C,J3*%
X54356000Y-55118000D03*
D11*
X51816000Y-55118000D03*
X49276000Y-55118000D03*
X46736000Y-55118000D03*
%TD*%
D23*
%TO.C,SW1*%
X39210000Y-59620000D03*
X37000000Y-59620000D03*
D24*
X38100000Y-61770000D03*
X38100000Y-64770000D03*
D23*
X39210000Y-66920000D03*
X37000000Y-66920000D03*
D25*
X39860000Y-61020000D03*
X39860000Y-64020000D03*
X39860000Y-65520000D03*
%TD*%
D26*
%TO.C,R8*%
X65786000Y-66802000D03*
X65786000Y-67822000D03*
%TD*%
D15*
%TO.C,D1*%
X69977000Y-77698500D03*
X69977000Y-79273500D03*
%TD*%
D27*
%TO.C,H4*%
X38608000Y-81788000D03*
%TD*%
D28*
%TO.C,R2*%
X51816000Y-77724000D03*
X50796000Y-77724000D03*
%TD*%
D27*
%TO.C,H2*%
X73406000Y-81788000D03*
%TD*%
D14*
%TO.C,C4*%
X48510000Y-64647500D03*
X48510000Y-63687500D03*
%TD*%
D29*
%TO.C,C3*%
X60194000Y-64191500D03*
X60194000Y-65151500D03*
%TD*%
D18*
%TO.C,R7*%
X67306000Y-60960000D03*
X68326000Y-60960000D03*
%TD*%
D22*
%TO.C,C7*%
X48006000Y-71973500D03*
X47046000Y-71973500D03*
%TD*%
D14*
%TO.C,C11*%
X45212000Y-68270000D03*
X45212000Y-67310000D03*
%TD*%
D27*
%TO.C,H3*%
X38608000Y-55372000D03*
%TD*%
D22*
%TO.C,C2*%
X57658000Y-73152000D03*
X56698000Y-73152000D03*
%TD*%
D30*
%TO.C,J1*%
X69756000Y-70202000D03*
X69756000Y-64422000D03*
D31*
X68311000Y-70562000D03*
X68311000Y-69762000D03*
D32*
X68311000Y-68562000D03*
X68311000Y-67562000D03*
X68311000Y-67062000D03*
X68311000Y-66062000D03*
D31*
X68311000Y-64862000D03*
X68311000Y-64062000D03*
X68311000Y-64062000D03*
X68311000Y-64862000D03*
D32*
X68311000Y-65562000D03*
X68311000Y-66562000D03*
X68311000Y-68062000D03*
X68311000Y-69062000D03*
D31*
X68311000Y-69762000D03*
X68311000Y-70562000D03*
D33*
X69226000Y-71632000D03*
D34*
X73406000Y-71632000D03*
D33*
X69226000Y-62992000D03*
D34*
X73406000Y-62992000D03*
%TD*%
D21*
%TO.C,R6*%
X65786000Y-64266000D03*
X65786000Y-63246000D03*
%TD*%
D13*
%TO.C,C9*%
X51614000Y-73152000D03*
X52574000Y-73152000D03*
%TD*%
D35*
%TO.C,U1*%
X50193500Y-64560000D03*
X50193500Y-65060000D03*
X50193500Y-65560000D03*
X50193500Y-66060000D03*
X50193500Y-66560000D03*
X50193500Y-67060000D03*
X50193500Y-67560000D03*
X50193500Y-68060000D03*
X50193500Y-68560000D03*
X50193500Y-69060000D03*
X50193500Y-69560000D03*
X50193500Y-70060000D03*
D36*
X51606000Y-71472500D03*
X52106000Y-71472500D03*
X52606000Y-71472500D03*
X53106000Y-71472500D03*
X53606000Y-71472500D03*
X54106000Y-71472500D03*
X54606000Y-71472500D03*
X55106000Y-71472500D03*
X55606000Y-71472500D03*
X56106000Y-71472500D03*
X56606000Y-71472500D03*
X57106000Y-71472500D03*
D35*
X58518500Y-70060000D03*
X58518500Y-69560000D03*
X58518500Y-69060000D03*
X58518500Y-68560000D03*
X58518500Y-68060000D03*
X58518500Y-67560000D03*
X58518500Y-67060000D03*
X58518500Y-66560000D03*
X58518500Y-66060000D03*
X58518500Y-65560000D03*
X58518500Y-65060000D03*
X58518500Y-64560000D03*
D36*
X57106000Y-63147500D03*
X56606000Y-63147500D03*
X56106000Y-63147500D03*
X55606000Y-63147500D03*
X55106000Y-63147500D03*
X54606000Y-63147500D03*
X54106000Y-63147500D03*
X53606000Y-63147500D03*
X53106000Y-63147500D03*
X52606000Y-63147500D03*
X52106000Y-63147500D03*
X51606000Y-63147500D03*
%TD*%
D27*
%TO.C,H1*%
X73406000Y-55372000D03*
%TD*%
D37*
%TO.C,C5*%
X51028000Y-59817000D03*
X52578000Y-59817000D03*
%TD*%
M02*
