%TF.GenerationSoftware,KiCad,Pcbnew,7.0.7*%
%TF.CreationDate,2023-12-23T18:12:20-05:00*%
%TF.ProjectId,stm32f1,73746d33-3266-4312-9e6b-696361645f70,rev?*%
%TF.SameCoordinates,Original*%
%TF.FileFunction,Legend,Bot*%
%TF.FilePolarity,Positive*%
%FSLAX46Y46*%
G04 Gerber Fmt 4.6, Leading zero omitted, Abs format (unit mm)*
G04 Created by KiCad (PCBNEW 7.0.7) date 2023-12-23 18:12:20*
%MOMM*%
%LPD*%
G01*
G04 APERTURE LIST*
%ADD10C,0.150000*%
G04 APERTURE END LIST*
D10*
X36457129Y-76206588D02*
X36416653Y-76247064D01*
X36416653Y-76247064D02*
X36376177Y-76328017D01*
X36376177Y-76328017D02*
X36376177Y-76530398D01*
X36376177Y-76530398D02*
X36416653Y-76611350D01*
X36416653Y-76611350D02*
X36457129Y-76651826D01*
X36457129Y-76651826D02*
X36538081Y-76692303D01*
X36538081Y-76692303D02*
X36619034Y-76692303D01*
X36619034Y-76692303D02*
X36740462Y-76651826D01*
X36740462Y-76651826D02*
X37226177Y-76166112D01*
X37226177Y-76166112D02*
X37226177Y-76692303D01*
X36376177Y-77218493D02*
X36376177Y-77299446D01*
X36376177Y-77299446D02*
X36416653Y-77380398D01*
X36416653Y-77380398D02*
X36457129Y-77420874D01*
X36457129Y-77420874D02*
X36538081Y-77461350D01*
X36538081Y-77461350D02*
X36699986Y-77501827D01*
X36699986Y-77501827D02*
X36902367Y-77501827D01*
X36902367Y-77501827D02*
X37064272Y-77461350D01*
X37064272Y-77461350D02*
X37145224Y-77420874D01*
X37145224Y-77420874D02*
X37185701Y-77380398D01*
X37185701Y-77380398D02*
X37226177Y-77299446D01*
X37226177Y-77299446D02*
X37226177Y-77218493D01*
X37226177Y-77218493D02*
X37185701Y-77137541D01*
X37185701Y-77137541D02*
X37145224Y-77097065D01*
X37145224Y-77097065D02*
X37064272Y-77056588D01*
X37064272Y-77056588D02*
X36902367Y-77016112D01*
X36902367Y-77016112D02*
X36699986Y-77016112D01*
X36699986Y-77016112D02*
X36538081Y-77056588D01*
X36538081Y-77056588D02*
X36457129Y-77097065D01*
X36457129Y-77097065D02*
X36416653Y-77137541D01*
X36416653Y-77137541D02*
X36376177Y-77218493D01*
X36457129Y-77825636D02*
X36416653Y-77866112D01*
X36416653Y-77866112D02*
X36376177Y-77947065D01*
X36376177Y-77947065D02*
X36376177Y-78149446D01*
X36376177Y-78149446D02*
X36416653Y-78230398D01*
X36416653Y-78230398D02*
X36457129Y-78270874D01*
X36457129Y-78270874D02*
X36538081Y-78311351D01*
X36538081Y-78311351D02*
X36619034Y-78311351D01*
X36619034Y-78311351D02*
X36740462Y-78270874D01*
X36740462Y-78270874D02*
X37226177Y-77785160D01*
X37226177Y-77785160D02*
X37226177Y-78311351D01*
X36376177Y-78594684D02*
X36376177Y-79120875D01*
X36376177Y-79120875D02*
X36699986Y-78837541D01*
X36699986Y-78837541D02*
X36699986Y-78958970D01*
X36699986Y-78958970D02*
X36740462Y-79039922D01*
X36740462Y-79039922D02*
X36780939Y-79080398D01*
X36780939Y-79080398D02*
X36861891Y-79120875D01*
X36861891Y-79120875D02*
X37064272Y-79120875D01*
X37064272Y-79120875D02*
X37145224Y-79080398D01*
X37145224Y-79080398D02*
X37185701Y-79039922D01*
X37185701Y-79039922D02*
X37226177Y-78958970D01*
X37226177Y-78958970D02*
X37226177Y-78716113D01*
X37226177Y-78716113D02*
X37185701Y-78635160D01*
X37185701Y-78635160D02*
X37145224Y-78594684D01*
X36659510Y-72610112D02*
X37226177Y-72812493D01*
X37226177Y-72812493D02*
X36659510Y-73014874D01*
X37226177Y-73783922D02*
X37226177Y-73298207D01*
X37226177Y-73541064D02*
X36376177Y-73541064D01*
X36376177Y-73541064D02*
X36497605Y-73460112D01*
X36497605Y-73460112D02*
X36578558Y-73379160D01*
X36578558Y-73379160D02*
X36619034Y-73298207D01*
X37145224Y-74148207D02*
X37185701Y-74188684D01*
X37185701Y-74188684D02*
X37226177Y-74148207D01*
X37226177Y-74148207D02*
X37185701Y-74107731D01*
X37185701Y-74107731D02*
X37145224Y-74148207D01*
X37145224Y-74148207D02*
X37226177Y-74148207D01*
X36376177Y-74714874D02*
X36376177Y-74795827D01*
X36376177Y-74795827D02*
X36416653Y-74876779D01*
X36416653Y-74876779D02*
X36457129Y-74917255D01*
X36457129Y-74917255D02*
X36538081Y-74957731D01*
X36538081Y-74957731D02*
X36699986Y-74998208D01*
X36699986Y-74998208D02*
X36902367Y-74998208D01*
X36902367Y-74998208D02*
X37064272Y-74957731D01*
X37064272Y-74957731D02*
X37145224Y-74917255D01*
X37145224Y-74917255D02*
X37185701Y-74876779D01*
X37185701Y-74876779D02*
X37226177Y-74795827D01*
X37226177Y-74795827D02*
X37226177Y-74714874D01*
X37226177Y-74714874D02*
X37185701Y-74633922D01*
X37185701Y-74633922D02*
X37145224Y-74593446D01*
X37145224Y-74593446D02*
X37064272Y-74552969D01*
X37064272Y-74552969D02*
X36902367Y-74512493D01*
X36902367Y-74512493D02*
X36699986Y-74512493D01*
X36699986Y-74512493D02*
X36538081Y-74552969D01*
X36538081Y-74552969D02*
X36457129Y-74593446D01*
X36457129Y-74593446D02*
X36416653Y-74633922D01*
X36416653Y-74633922D02*
X36376177Y-74714874D01*
M02*
