%TF.GenerationSoftware,KiCad,Pcbnew,7.0.7*%
%TF.CreationDate,2023-12-23T18:12:20-05:00*%
%TF.ProjectId,stm32f1,73746d33-3266-4312-9e6b-696361645f70,rev?*%
%TF.SameCoordinates,Original*%
%TF.FileFunction,Legend,Top*%
%TF.FilePolarity,Positive*%
%FSLAX46Y46*%
G04 Gerber Fmt 4.6, Leading zero omitted, Abs format (unit mm)*
G04 Created by KiCad (PCBNEW 7.0.7) date 2023-12-23 18:12:20*
%MOMM*%
%LPD*%
G01*
G04 APERTURE LIST*
%ADD10C,0.150000*%
%ADD11C,0.120000*%
G04 APERTURE END LIST*
D10*
X60957064Y-58022200D02*
X61071350Y-58060295D01*
X61071350Y-58060295D02*
X61261826Y-58060295D01*
X61261826Y-58060295D02*
X61338017Y-58022200D01*
X61338017Y-58022200D02*
X61376112Y-57984104D01*
X61376112Y-57984104D02*
X61414207Y-57907914D01*
X61414207Y-57907914D02*
X61414207Y-57831723D01*
X61414207Y-57831723D02*
X61376112Y-57755533D01*
X61376112Y-57755533D02*
X61338017Y-57717438D01*
X61338017Y-57717438D02*
X61261826Y-57679342D01*
X61261826Y-57679342D02*
X61109445Y-57641247D01*
X61109445Y-57641247D02*
X61033255Y-57603152D01*
X61033255Y-57603152D02*
X60995160Y-57565057D01*
X60995160Y-57565057D02*
X60957064Y-57488866D01*
X60957064Y-57488866D02*
X60957064Y-57412676D01*
X60957064Y-57412676D02*
X60995160Y-57336485D01*
X60995160Y-57336485D02*
X61033255Y-57298390D01*
X61033255Y-57298390D02*
X61109445Y-57260295D01*
X61109445Y-57260295D02*
X61299922Y-57260295D01*
X61299922Y-57260295D02*
X61414207Y-57298390D01*
X61680874Y-57260295D02*
X61871350Y-58060295D01*
X61871350Y-58060295D02*
X62023731Y-57488866D01*
X62023731Y-57488866D02*
X62176112Y-58060295D01*
X62176112Y-58060295D02*
X62366589Y-57260295D01*
X62671351Y-58060295D02*
X62671351Y-57260295D01*
X62671351Y-57260295D02*
X62861827Y-57260295D01*
X62861827Y-57260295D02*
X62976113Y-57298390D01*
X62976113Y-57298390D02*
X63052303Y-57374580D01*
X63052303Y-57374580D02*
X63090398Y-57450771D01*
X63090398Y-57450771D02*
X63128494Y-57603152D01*
X63128494Y-57603152D02*
X63128494Y-57717438D01*
X63128494Y-57717438D02*
X63090398Y-57869819D01*
X63090398Y-57869819D02*
X63052303Y-57946009D01*
X63052303Y-57946009D02*
X62976113Y-58022200D01*
X62976113Y-58022200D02*
X62861827Y-58060295D01*
X62861827Y-58060295D02*
X62671351Y-58060295D01*
X57232779Y-81784866D02*
X57994684Y-81784866D01*
X44024779Y-55114866D02*
X44786684Y-55114866D01*
X37639826Y-68309247D02*
X37754112Y-68347342D01*
X37754112Y-68347342D02*
X37792207Y-68385438D01*
X37792207Y-68385438D02*
X37830303Y-68461628D01*
X37830303Y-68461628D02*
X37830303Y-68575914D01*
X37830303Y-68575914D02*
X37792207Y-68652104D01*
X37792207Y-68652104D02*
X37754112Y-68690200D01*
X37754112Y-68690200D02*
X37677922Y-68728295D01*
X37677922Y-68728295D02*
X37373160Y-68728295D01*
X37373160Y-68728295D02*
X37373160Y-67928295D01*
X37373160Y-67928295D02*
X37639826Y-67928295D01*
X37639826Y-67928295D02*
X37716017Y-67966390D01*
X37716017Y-67966390D02*
X37754112Y-68004485D01*
X37754112Y-68004485D02*
X37792207Y-68080676D01*
X37792207Y-68080676D02*
X37792207Y-68156866D01*
X37792207Y-68156866D02*
X37754112Y-68233057D01*
X37754112Y-68233057D02*
X37716017Y-68271152D01*
X37716017Y-68271152D02*
X37639826Y-68309247D01*
X37639826Y-68309247D02*
X37373160Y-68309247D01*
X38325541Y-67928295D02*
X38477922Y-67928295D01*
X38477922Y-67928295D02*
X38554112Y-67966390D01*
X38554112Y-67966390D02*
X38630303Y-68042580D01*
X38630303Y-68042580D02*
X38668398Y-68194961D01*
X38668398Y-68194961D02*
X38668398Y-68461628D01*
X38668398Y-68461628D02*
X38630303Y-68614009D01*
X38630303Y-68614009D02*
X38554112Y-68690200D01*
X38554112Y-68690200D02*
X38477922Y-68728295D01*
X38477922Y-68728295D02*
X38325541Y-68728295D01*
X38325541Y-68728295D02*
X38249350Y-68690200D01*
X38249350Y-68690200D02*
X38173160Y-68614009D01*
X38173160Y-68614009D02*
X38135064Y-68461628D01*
X38135064Y-68461628D02*
X38135064Y-68194961D01*
X38135064Y-68194961D02*
X38173160Y-68042580D01*
X38173160Y-68042580D02*
X38249350Y-67966390D01*
X38249350Y-67966390D02*
X38325541Y-67928295D01*
X39163636Y-67928295D02*
X39316017Y-67928295D01*
X39316017Y-67928295D02*
X39392207Y-67966390D01*
X39392207Y-67966390D02*
X39468398Y-68042580D01*
X39468398Y-68042580D02*
X39506493Y-68194961D01*
X39506493Y-68194961D02*
X39506493Y-68461628D01*
X39506493Y-68461628D02*
X39468398Y-68614009D01*
X39468398Y-68614009D02*
X39392207Y-68690200D01*
X39392207Y-68690200D02*
X39316017Y-68728295D01*
X39316017Y-68728295D02*
X39163636Y-68728295D01*
X39163636Y-68728295D02*
X39087445Y-68690200D01*
X39087445Y-68690200D02*
X39011255Y-68614009D01*
X39011255Y-68614009D02*
X38973159Y-68461628D01*
X38973159Y-68461628D02*
X38973159Y-68194961D01*
X38973159Y-68194961D02*
X39011255Y-68042580D01*
X39011255Y-68042580D02*
X39087445Y-67966390D01*
X39087445Y-67966390D02*
X39163636Y-67928295D01*
X39735064Y-67928295D02*
X40192207Y-67928295D01*
X39963635Y-68728295D02*
X39963635Y-67928295D01*
X43723160Y-82190295D02*
X43723160Y-81390295D01*
X44066016Y-81466485D02*
X44104112Y-81428390D01*
X44104112Y-81428390D02*
X44180302Y-81390295D01*
X44180302Y-81390295D02*
X44370778Y-81390295D01*
X44370778Y-81390295D02*
X44446969Y-81428390D01*
X44446969Y-81428390D02*
X44485064Y-81466485D01*
X44485064Y-81466485D02*
X44523159Y-81542676D01*
X44523159Y-81542676D02*
X44523159Y-81618866D01*
X44523159Y-81618866D02*
X44485064Y-81733152D01*
X44485064Y-81733152D02*
X44027921Y-82190295D01*
X44027921Y-82190295D02*
X44523159Y-82190295D01*
X45323160Y-82114104D02*
X45285064Y-82152200D01*
X45285064Y-82152200D02*
X45170779Y-82190295D01*
X45170779Y-82190295D02*
X45094588Y-82190295D01*
X45094588Y-82190295D02*
X44980302Y-82152200D01*
X44980302Y-82152200D02*
X44904112Y-82076009D01*
X44904112Y-82076009D02*
X44866017Y-81999819D01*
X44866017Y-81999819D02*
X44827921Y-81847438D01*
X44827921Y-81847438D02*
X44827921Y-81733152D01*
X44827921Y-81733152D02*
X44866017Y-81580771D01*
X44866017Y-81580771D02*
X44904112Y-81504580D01*
X44904112Y-81504580D02*
X44980302Y-81428390D01*
X44980302Y-81428390D02*
X45094588Y-81390295D01*
X45094588Y-81390295D02*
X45170779Y-81390295D01*
X45170779Y-81390295D02*
X45285064Y-81428390D01*
X45285064Y-81428390D02*
X45323160Y-81466485D01*
X37232295Y-79212839D02*
X36432295Y-79212839D01*
X36432295Y-79212839D02*
X37003723Y-78946173D01*
X37003723Y-78946173D02*
X36432295Y-78679506D01*
X36432295Y-78679506D02*
X37232295Y-78679506D01*
X37003723Y-78336649D02*
X37003723Y-77955696D01*
X37232295Y-78412839D02*
X36432295Y-78146172D01*
X36432295Y-78146172D02*
X37232295Y-77879506D01*
X36470390Y-77193792D02*
X36432295Y-77269982D01*
X36432295Y-77269982D02*
X36432295Y-77384268D01*
X36432295Y-77384268D02*
X36470390Y-77498554D01*
X36470390Y-77498554D02*
X36546580Y-77574744D01*
X36546580Y-77574744D02*
X36622771Y-77612839D01*
X36622771Y-77612839D02*
X36775152Y-77650935D01*
X36775152Y-77650935D02*
X36889438Y-77650935D01*
X36889438Y-77650935D02*
X37041819Y-77612839D01*
X37041819Y-77612839D02*
X37118009Y-77574744D01*
X37118009Y-77574744D02*
X37194200Y-77498554D01*
X37194200Y-77498554D02*
X37232295Y-77384268D01*
X37232295Y-77384268D02*
X37232295Y-77308077D01*
X37232295Y-77308077D02*
X37194200Y-77193792D01*
X37194200Y-77193792D02*
X37156104Y-77155696D01*
X37156104Y-77155696D02*
X36889438Y-77155696D01*
X36889438Y-77155696D02*
X36889438Y-77308077D01*
X37232295Y-76812839D02*
X36432295Y-76812839D01*
X36432295Y-76812839D02*
X37232295Y-76355696D01*
X37232295Y-76355696D02*
X36432295Y-76355696D01*
X36432295Y-75974744D02*
X37079914Y-75974744D01*
X37079914Y-75974744D02*
X37156104Y-75936649D01*
X37156104Y-75936649D02*
X37194200Y-75898554D01*
X37194200Y-75898554D02*
X37232295Y-75822363D01*
X37232295Y-75822363D02*
X37232295Y-75669982D01*
X37232295Y-75669982D02*
X37194200Y-75593792D01*
X37194200Y-75593792D02*
X37156104Y-75555697D01*
X37156104Y-75555697D02*
X37079914Y-75517601D01*
X37079914Y-75517601D02*
X36432295Y-75517601D01*
X37194200Y-75174745D02*
X37232295Y-75060459D01*
X37232295Y-75060459D02*
X37232295Y-74869983D01*
X37232295Y-74869983D02*
X37194200Y-74793792D01*
X37194200Y-74793792D02*
X37156104Y-74755697D01*
X37156104Y-74755697D02*
X37079914Y-74717602D01*
X37079914Y-74717602D02*
X37003723Y-74717602D01*
X37003723Y-74717602D02*
X36927533Y-74755697D01*
X36927533Y-74755697D02*
X36889438Y-74793792D01*
X36889438Y-74793792D02*
X36851342Y-74869983D01*
X36851342Y-74869983D02*
X36813247Y-75022364D01*
X36813247Y-75022364D02*
X36775152Y-75098554D01*
X36775152Y-75098554D02*
X36737057Y-75136649D01*
X36737057Y-75136649D02*
X36660866Y-75174745D01*
X36660866Y-75174745D02*
X36584676Y-75174745D01*
X36584676Y-75174745D02*
X36508485Y-75136649D01*
X36508485Y-75136649D02*
X36470390Y-75098554D01*
X36470390Y-75098554D02*
X36432295Y-75022364D01*
X36432295Y-75022364D02*
X36432295Y-74831887D01*
X36432295Y-74831887D02*
X36470390Y-74717602D01*
X37232295Y-73765220D02*
X36432295Y-73765220D01*
X36813247Y-73765220D02*
X36813247Y-73308077D01*
X37232295Y-73308077D02*
X36432295Y-73308077D01*
X37003723Y-72965221D02*
X37003723Y-72584268D01*
X37232295Y-73041411D02*
X36432295Y-72774744D01*
X36432295Y-72774744D02*
X37232295Y-72508078D01*
X37232295Y-72241411D02*
X36432295Y-72241411D01*
X36432295Y-72241411D02*
X36432295Y-72050935D01*
X36432295Y-72050935D02*
X36470390Y-71936649D01*
X36470390Y-71936649D02*
X36546580Y-71860459D01*
X36546580Y-71860459D02*
X36622771Y-71822364D01*
X36622771Y-71822364D02*
X36775152Y-71784268D01*
X36775152Y-71784268D02*
X36889438Y-71784268D01*
X36889438Y-71784268D02*
X37041819Y-71822364D01*
X37041819Y-71822364D02*
X37118009Y-71860459D01*
X37118009Y-71860459D02*
X37194200Y-71936649D01*
X37194200Y-71936649D02*
X37232295Y-72050935D01*
X37232295Y-72050935D02*
X37232295Y-72241411D01*
X36813247Y-71441411D02*
X36813247Y-71174745D01*
X37232295Y-71060459D02*
X37232295Y-71441411D01*
X37232295Y-71441411D02*
X36432295Y-71441411D01*
X36432295Y-71441411D02*
X36432295Y-71060459D01*
X37194200Y-70755697D02*
X37232295Y-70641411D01*
X37232295Y-70641411D02*
X37232295Y-70450935D01*
X37232295Y-70450935D02*
X37194200Y-70374744D01*
X37194200Y-70374744D02*
X37156104Y-70336649D01*
X37156104Y-70336649D02*
X37079914Y-70298554D01*
X37079914Y-70298554D02*
X37003723Y-70298554D01*
X37003723Y-70298554D02*
X36927533Y-70336649D01*
X36927533Y-70336649D02*
X36889438Y-70374744D01*
X36889438Y-70374744D02*
X36851342Y-70450935D01*
X36851342Y-70450935D02*
X36813247Y-70603316D01*
X36813247Y-70603316D02*
X36775152Y-70679506D01*
X36775152Y-70679506D02*
X36737057Y-70717601D01*
X36737057Y-70717601D02*
X36660866Y-70755697D01*
X36660866Y-70755697D02*
X36584676Y-70755697D01*
X36584676Y-70755697D02*
X36508485Y-70717601D01*
X36508485Y-70717601D02*
X36470390Y-70679506D01*
X36470390Y-70679506D02*
X36432295Y-70603316D01*
X36432295Y-70603316D02*
X36432295Y-70412839D01*
X36432295Y-70412839D02*
X36470390Y-70298554D01*
X56724779Y-55114866D02*
X57486684Y-55114866D01*
X47025160Y-57260295D02*
X47025160Y-57907914D01*
X47025160Y-57907914D02*
X47063255Y-57984104D01*
X47063255Y-57984104D02*
X47101350Y-58022200D01*
X47101350Y-58022200D02*
X47177541Y-58060295D01*
X47177541Y-58060295D02*
X47329922Y-58060295D01*
X47329922Y-58060295D02*
X47406112Y-58022200D01*
X47406112Y-58022200D02*
X47444207Y-57984104D01*
X47444207Y-57984104D02*
X47482303Y-57907914D01*
X47482303Y-57907914D02*
X47482303Y-57260295D01*
X47825159Y-57831723D02*
X48206112Y-57831723D01*
X47748969Y-58060295D02*
X48015636Y-57260295D01*
X48015636Y-57260295D02*
X48282302Y-58060295D01*
X49006112Y-58060295D02*
X48739445Y-57679342D01*
X48548969Y-58060295D02*
X48548969Y-57260295D01*
X48548969Y-57260295D02*
X48853731Y-57260295D01*
X48853731Y-57260295D02*
X48929921Y-57298390D01*
X48929921Y-57298390D02*
X48968016Y-57336485D01*
X48968016Y-57336485D02*
X49006112Y-57412676D01*
X49006112Y-57412676D02*
X49006112Y-57526961D01*
X49006112Y-57526961D02*
X48968016Y-57603152D01*
X48968016Y-57603152D02*
X48929921Y-57641247D01*
X48929921Y-57641247D02*
X48853731Y-57679342D01*
X48853731Y-57679342D02*
X48548969Y-57679342D01*
X49234683Y-57260295D02*
X49691826Y-57260295D01*
X49463254Y-58060295D02*
X49463254Y-57260295D01*
X63239714Y-71660104D02*
X63201618Y-71698200D01*
X63201618Y-71698200D02*
X63087333Y-71736295D01*
X63087333Y-71736295D02*
X63011142Y-71736295D01*
X63011142Y-71736295D02*
X62896856Y-71698200D01*
X62896856Y-71698200D02*
X62820666Y-71622009D01*
X62820666Y-71622009D02*
X62782571Y-71545819D01*
X62782571Y-71545819D02*
X62744475Y-71393438D01*
X62744475Y-71393438D02*
X62744475Y-71279152D01*
X62744475Y-71279152D02*
X62782571Y-71126771D01*
X62782571Y-71126771D02*
X62820666Y-71050580D01*
X62820666Y-71050580D02*
X62896856Y-70974390D01*
X62896856Y-70974390D02*
X63011142Y-70936295D01*
X63011142Y-70936295D02*
X63087333Y-70936295D01*
X63087333Y-70936295D02*
X63201618Y-70974390D01*
X63201618Y-70974390D02*
X63239714Y-71012485D01*
X64001618Y-71736295D02*
X63544475Y-71736295D01*
X63773047Y-71736295D02*
X63773047Y-70936295D01*
X63773047Y-70936295D02*
X63696856Y-71050580D01*
X63696856Y-71050580D02*
X63620666Y-71126771D01*
X63620666Y-71126771D02*
X63544475Y-71164866D01*
X64306380Y-71012485D02*
X64344476Y-70974390D01*
X64344476Y-70974390D02*
X64420666Y-70936295D01*
X64420666Y-70936295D02*
X64611142Y-70936295D01*
X64611142Y-70936295D02*
X64687333Y-70974390D01*
X64687333Y-70974390D02*
X64725428Y-71012485D01*
X64725428Y-71012485D02*
X64763523Y-71088676D01*
X64763523Y-71088676D02*
X64763523Y-71164866D01*
X64763523Y-71164866D02*
X64725428Y-71279152D01*
X64725428Y-71279152D02*
X64268285Y-71736295D01*
X64268285Y-71736295D02*
X64763523Y-71736295D01*
X49721667Y-61754104D02*
X49683571Y-61792200D01*
X49683571Y-61792200D02*
X49569286Y-61830295D01*
X49569286Y-61830295D02*
X49493095Y-61830295D01*
X49493095Y-61830295D02*
X49378809Y-61792200D01*
X49378809Y-61792200D02*
X49302619Y-61716009D01*
X49302619Y-61716009D02*
X49264524Y-61639819D01*
X49264524Y-61639819D02*
X49226428Y-61487438D01*
X49226428Y-61487438D02*
X49226428Y-61373152D01*
X49226428Y-61373152D02*
X49264524Y-61220771D01*
X49264524Y-61220771D02*
X49302619Y-61144580D01*
X49302619Y-61144580D02*
X49378809Y-61068390D01*
X49378809Y-61068390D02*
X49493095Y-61030295D01*
X49493095Y-61030295D02*
X49569286Y-61030295D01*
X49569286Y-61030295D02*
X49683571Y-61068390D01*
X49683571Y-61068390D02*
X49721667Y-61106485D01*
X50483571Y-61830295D02*
X50026428Y-61830295D01*
X50255000Y-61830295D02*
X50255000Y-61030295D01*
X50255000Y-61030295D02*
X50178809Y-61144580D01*
X50178809Y-61144580D02*
X50102619Y-61220771D01*
X50102619Y-61220771D02*
X50026428Y-61258866D01*
X47110667Y-69374104D02*
X47072571Y-69412200D01*
X47072571Y-69412200D02*
X46958286Y-69450295D01*
X46958286Y-69450295D02*
X46882095Y-69450295D01*
X46882095Y-69450295D02*
X46767809Y-69412200D01*
X46767809Y-69412200D02*
X46691619Y-69336009D01*
X46691619Y-69336009D02*
X46653524Y-69259819D01*
X46653524Y-69259819D02*
X46615428Y-69107438D01*
X46615428Y-69107438D02*
X46615428Y-68993152D01*
X46615428Y-68993152D02*
X46653524Y-68840771D01*
X46653524Y-68840771D02*
X46691619Y-68764580D01*
X46691619Y-68764580D02*
X46767809Y-68688390D01*
X46767809Y-68688390D02*
X46882095Y-68650295D01*
X46882095Y-68650295D02*
X46958286Y-68650295D01*
X46958286Y-68650295D02*
X47072571Y-68688390D01*
X47072571Y-68688390D02*
X47110667Y-68726485D01*
X47796381Y-68650295D02*
X47644000Y-68650295D01*
X47644000Y-68650295D02*
X47567809Y-68688390D01*
X47567809Y-68688390D02*
X47529714Y-68726485D01*
X47529714Y-68726485D02*
X47453524Y-68840771D01*
X47453524Y-68840771D02*
X47415428Y-68993152D01*
X47415428Y-68993152D02*
X47415428Y-69297914D01*
X47415428Y-69297914D02*
X47453524Y-69374104D01*
X47453524Y-69374104D02*
X47491619Y-69412200D01*
X47491619Y-69412200D02*
X47567809Y-69450295D01*
X47567809Y-69450295D02*
X47720190Y-69450295D01*
X47720190Y-69450295D02*
X47796381Y-69412200D01*
X47796381Y-69412200D02*
X47834476Y-69374104D01*
X47834476Y-69374104D02*
X47872571Y-69297914D01*
X47872571Y-69297914D02*
X47872571Y-69107438D01*
X47872571Y-69107438D02*
X47834476Y-69031247D01*
X47834476Y-69031247D02*
X47796381Y-68993152D01*
X47796381Y-68993152D02*
X47720190Y-68955057D01*
X47720190Y-68955057D02*
X47567809Y-68955057D01*
X47567809Y-68955057D02*
X47491619Y-68993152D01*
X47491619Y-68993152D02*
X47453524Y-69031247D01*
X47453524Y-69031247D02*
X47415428Y-69107438D01*
X50133333Y-74873247D02*
X49866667Y-74873247D01*
X49866667Y-75292295D02*
X49866667Y-74492295D01*
X49866667Y-74492295D02*
X50247619Y-74492295D01*
X50819047Y-74873247D02*
X50933333Y-74911342D01*
X50933333Y-74911342D02*
X50971428Y-74949438D01*
X50971428Y-74949438D02*
X51009524Y-75025628D01*
X51009524Y-75025628D02*
X51009524Y-75139914D01*
X51009524Y-75139914D02*
X50971428Y-75216104D01*
X50971428Y-75216104D02*
X50933333Y-75254200D01*
X50933333Y-75254200D02*
X50857143Y-75292295D01*
X50857143Y-75292295D02*
X50552381Y-75292295D01*
X50552381Y-75292295D02*
X50552381Y-74492295D01*
X50552381Y-74492295D02*
X50819047Y-74492295D01*
X50819047Y-74492295D02*
X50895238Y-74530390D01*
X50895238Y-74530390D02*
X50933333Y-74568485D01*
X50933333Y-74568485D02*
X50971428Y-74644676D01*
X50971428Y-74644676D02*
X50971428Y-74720866D01*
X50971428Y-74720866D02*
X50933333Y-74797057D01*
X50933333Y-74797057D02*
X50895238Y-74835152D01*
X50895238Y-74835152D02*
X50819047Y-74873247D01*
X50819047Y-74873247D02*
X50552381Y-74873247D01*
X51771428Y-75292295D02*
X51314285Y-75292295D01*
X51542857Y-75292295D02*
X51542857Y-74492295D01*
X51542857Y-74492295D02*
X51466666Y-74606580D01*
X51466666Y-74606580D02*
X51390476Y-74682771D01*
X51390476Y-74682771D02*
X51314285Y-74720866D01*
X41529048Y-69521342D02*
X41529048Y-69902295D01*
X41262381Y-69102295D02*
X41529048Y-69521342D01*
X41529048Y-69521342D02*
X41795714Y-69102295D01*
X42481428Y-69902295D02*
X42024285Y-69902295D01*
X42252857Y-69902295D02*
X42252857Y-69102295D01*
X42252857Y-69102295D02*
X42176666Y-69216580D01*
X42176666Y-69216580D02*
X42100476Y-69292771D01*
X42100476Y-69292771D02*
X42024285Y-69330866D01*
X66033714Y-74962104D02*
X65995618Y-75000200D01*
X65995618Y-75000200D02*
X65881333Y-75038295D01*
X65881333Y-75038295D02*
X65805142Y-75038295D01*
X65805142Y-75038295D02*
X65690856Y-75000200D01*
X65690856Y-75000200D02*
X65614666Y-74924009D01*
X65614666Y-74924009D02*
X65576571Y-74847819D01*
X65576571Y-74847819D02*
X65538475Y-74695438D01*
X65538475Y-74695438D02*
X65538475Y-74581152D01*
X65538475Y-74581152D02*
X65576571Y-74428771D01*
X65576571Y-74428771D02*
X65614666Y-74352580D01*
X65614666Y-74352580D02*
X65690856Y-74276390D01*
X65690856Y-74276390D02*
X65805142Y-74238295D01*
X65805142Y-74238295D02*
X65881333Y-74238295D01*
X65881333Y-74238295D02*
X65995618Y-74276390D01*
X65995618Y-74276390D02*
X66033714Y-74314485D01*
X66795618Y-75038295D02*
X66338475Y-75038295D01*
X66567047Y-75038295D02*
X66567047Y-74238295D01*
X66567047Y-74238295D02*
X66490856Y-74352580D01*
X66490856Y-74352580D02*
X66414666Y-74428771D01*
X66414666Y-74428771D02*
X66338475Y-74466866D01*
X67062285Y-74238295D02*
X67557523Y-74238295D01*
X67557523Y-74238295D02*
X67290857Y-74543057D01*
X67290857Y-74543057D02*
X67405142Y-74543057D01*
X67405142Y-74543057D02*
X67481333Y-74581152D01*
X67481333Y-74581152D02*
X67519428Y-74619247D01*
X67519428Y-74619247D02*
X67557523Y-74695438D01*
X67557523Y-74695438D02*
X67557523Y-74885914D01*
X67557523Y-74885914D02*
X67519428Y-74962104D01*
X67519428Y-74962104D02*
X67481333Y-75000200D01*
X67481333Y-75000200D02*
X67405142Y-75038295D01*
X67405142Y-75038295D02*
X67176571Y-75038295D01*
X67176571Y-75038295D02*
X67100380Y-75000200D01*
X67100380Y-75000200D02*
X67062285Y-74962104D01*
X44697714Y-64040104D02*
X44659618Y-64078200D01*
X44659618Y-64078200D02*
X44545333Y-64116295D01*
X44545333Y-64116295D02*
X44469142Y-64116295D01*
X44469142Y-64116295D02*
X44354856Y-64078200D01*
X44354856Y-64078200D02*
X44278666Y-64002009D01*
X44278666Y-64002009D02*
X44240571Y-63925819D01*
X44240571Y-63925819D02*
X44202475Y-63773438D01*
X44202475Y-63773438D02*
X44202475Y-63659152D01*
X44202475Y-63659152D02*
X44240571Y-63506771D01*
X44240571Y-63506771D02*
X44278666Y-63430580D01*
X44278666Y-63430580D02*
X44354856Y-63354390D01*
X44354856Y-63354390D02*
X44469142Y-63316295D01*
X44469142Y-63316295D02*
X44545333Y-63316295D01*
X44545333Y-63316295D02*
X44659618Y-63354390D01*
X44659618Y-63354390D02*
X44697714Y-63392485D01*
X45459618Y-64116295D02*
X45002475Y-64116295D01*
X45231047Y-64116295D02*
X45231047Y-63316295D01*
X45231047Y-63316295D02*
X45154856Y-63430580D01*
X45154856Y-63430580D02*
X45078666Y-63506771D01*
X45078666Y-63506771D02*
X45002475Y-63544866D01*
X45954857Y-63316295D02*
X46031047Y-63316295D01*
X46031047Y-63316295D02*
X46107238Y-63354390D01*
X46107238Y-63354390D02*
X46145333Y-63392485D01*
X46145333Y-63392485D02*
X46183428Y-63468676D01*
X46183428Y-63468676D02*
X46221523Y-63621057D01*
X46221523Y-63621057D02*
X46221523Y-63811533D01*
X46221523Y-63811533D02*
X46183428Y-63963914D01*
X46183428Y-63963914D02*
X46145333Y-64040104D01*
X46145333Y-64040104D02*
X46107238Y-64078200D01*
X46107238Y-64078200D02*
X46031047Y-64116295D01*
X46031047Y-64116295D02*
X45954857Y-64116295D01*
X45954857Y-64116295D02*
X45878666Y-64078200D01*
X45878666Y-64078200D02*
X45840571Y-64040104D01*
X45840571Y-64040104D02*
X45802476Y-63963914D01*
X45802476Y-63963914D02*
X45764380Y-63811533D01*
X45764380Y-63811533D02*
X45764380Y-63621057D01*
X45764380Y-63621057D02*
X45802476Y-63468676D01*
X45802476Y-63468676D02*
X45840571Y-63392485D01*
X45840571Y-63392485D02*
X45878666Y-63354390D01*
X45878666Y-63354390D02*
X45954857Y-63316295D01*
X73272667Y-76435295D02*
X73006000Y-76054342D01*
X72815524Y-76435295D02*
X72815524Y-75635295D01*
X72815524Y-75635295D02*
X73120286Y-75635295D01*
X73120286Y-75635295D02*
X73196476Y-75673390D01*
X73196476Y-75673390D02*
X73234571Y-75711485D01*
X73234571Y-75711485D02*
X73272667Y-75787676D01*
X73272667Y-75787676D02*
X73272667Y-75901961D01*
X73272667Y-75901961D02*
X73234571Y-75978152D01*
X73234571Y-75978152D02*
X73196476Y-76016247D01*
X73196476Y-76016247D02*
X73120286Y-76054342D01*
X73120286Y-76054342D02*
X72815524Y-76054342D01*
X73996476Y-75635295D02*
X73615524Y-75635295D01*
X73615524Y-75635295D02*
X73577428Y-76016247D01*
X73577428Y-76016247D02*
X73615524Y-75978152D01*
X73615524Y-75978152D02*
X73691714Y-75940057D01*
X73691714Y-75940057D02*
X73882190Y-75940057D01*
X73882190Y-75940057D02*
X73958381Y-75978152D01*
X73958381Y-75978152D02*
X73996476Y-76016247D01*
X73996476Y-76016247D02*
X74034571Y-76092438D01*
X74034571Y-76092438D02*
X74034571Y-76282914D01*
X74034571Y-76282914D02*
X73996476Y-76359104D01*
X73996476Y-76359104D02*
X73958381Y-76397200D01*
X73958381Y-76397200D02*
X73882190Y-76435295D01*
X73882190Y-76435295D02*
X73691714Y-76435295D01*
X73691714Y-76435295D02*
X73615524Y-76397200D01*
X73615524Y-76397200D02*
X73577428Y-76359104D01*
X58318476Y-73730295D02*
X58318476Y-74377914D01*
X58318476Y-74377914D02*
X58356571Y-74454104D01*
X58356571Y-74454104D02*
X58394666Y-74492200D01*
X58394666Y-74492200D02*
X58470857Y-74530295D01*
X58470857Y-74530295D02*
X58623238Y-74530295D01*
X58623238Y-74530295D02*
X58699428Y-74492200D01*
X58699428Y-74492200D02*
X58737523Y-74454104D01*
X58737523Y-74454104D02*
X58775619Y-74377914D01*
X58775619Y-74377914D02*
X58775619Y-73730295D01*
X59118475Y-73806485D02*
X59156571Y-73768390D01*
X59156571Y-73768390D02*
X59232761Y-73730295D01*
X59232761Y-73730295D02*
X59423237Y-73730295D01*
X59423237Y-73730295D02*
X59499428Y-73768390D01*
X59499428Y-73768390D02*
X59537523Y-73806485D01*
X59537523Y-73806485D02*
X59575618Y-73882676D01*
X59575618Y-73882676D02*
X59575618Y-73958866D01*
X59575618Y-73958866D02*
X59537523Y-74073152D01*
X59537523Y-74073152D02*
X59080380Y-74530295D01*
X59080380Y-74530295D02*
X59575618Y-74530295D01*
X43046667Y-60437295D02*
X42780000Y-60056342D01*
X42589524Y-60437295D02*
X42589524Y-59637295D01*
X42589524Y-59637295D02*
X42894286Y-59637295D01*
X42894286Y-59637295D02*
X42970476Y-59675390D01*
X42970476Y-59675390D02*
X43008571Y-59713485D01*
X43008571Y-59713485D02*
X43046667Y-59789676D01*
X43046667Y-59789676D02*
X43046667Y-59903961D01*
X43046667Y-59903961D02*
X43008571Y-59980152D01*
X43008571Y-59980152D02*
X42970476Y-60018247D01*
X42970476Y-60018247D02*
X42894286Y-60056342D01*
X42894286Y-60056342D02*
X42589524Y-60056342D01*
X43732381Y-59903961D02*
X43732381Y-60437295D01*
X43541905Y-59599200D02*
X43351428Y-60170628D01*
X43351428Y-60170628D02*
X43846667Y-60170628D01*
X69843667Y-74024295D02*
X69577000Y-73643342D01*
X69386524Y-74024295D02*
X69386524Y-73224295D01*
X69386524Y-73224295D02*
X69691286Y-73224295D01*
X69691286Y-73224295D02*
X69767476Y-73262390D01*
X69767476Y-73262390D02*
X69805571Y-73300485D01*
X69805571Y-73300485D02*
X69843667Y-73376676D01*
X69843667Y-73376676D02*
X69843667Y-73490961D01*
X69843667Y-73490961D02*
X69805571Y-73567152D01*
X69805571Y-73567152D02*
X69767476Y-73605247D01*
X69767476Y-73605247D02*
X69691286Y-73643342D01*
X69691286Y-73643342D02*
X69386524Y-73643342D01*
X70605571Y-74024295D02*
X70148428Y-74024295D01*
X70377000Y-74024295D02*
X70377000Y-73224295D01*
X70377000Y-73224295D02*
X70300809Y-73338580D01*
X70300809Y-73338580D02*
X70224619Y-73414771D01*
X70224619Y-73414771D02*
X70148428Y-73452866D01*
X45332667Y-73946104D02*
X45294571Y-73984200D01*
X45294571Y-73984200D02*
X45180286Y-74022295D01*
X45180286Y-74022295D02*
X45104095Y-74022295D01*
X45104095Y-74022295D02*
X44989809Y-73984200D01*
X44989809Y-73984200D02*
X44913619Y-73908009D01*
X44913619Y-73908009D02*
X44875524Y-73831819D01*
X44875524Y-73831819D02*
X44837428Y-73679438D01*
X44837428Y-73679438D02*
X44837428Y-73565152D01*
X44837428Y-73565152D02*
X44875524Y-73412771D01*
X44875524Y-73412771D02*
X44913619Y-73336580D01*
X44913619Y-73336580D02*
X44989809Y-73260390D01*
X44989809Y-73260390D02*
X45104095Y-73222295D01*
X45104095Y-73222295D02*
X45180286Y-73222295D01*
X45180286Y-73222295D02*
X45294571Y-73260390D01*
X45294571Y-73260390D02*
X45332667Y-73298485D01*
X45789809Y-73565152D02*
X45713619Y-73527057D01*
X45713619Y-73527057D02*
X45675524Y-73488961D01*
X45675524Y-73488961D02*
X45637428Y-73412771D01*
X45637428Y-73412771D02*
X45637428Y-73374676D01*
X45637428Y-73374676D02*
X45675524Y-73298485D01*
X45675524Y-73298485D02*
X45713619Y-73260390D01*
X45713619Y-73260390D02*
X45789809Y-73222295D01*
X45789809Y-73222295D02*
X45942190Y-73222295D01*
X45942190Y-73222295D02*
X46018381Y-73260390D01*
X46018381Y-73260390D02*
X46056476Y-73298485D01*
X46056476Y-73298485D02*
X46094571Y-73374676D01*
X46094571Y-73374676D02*
X46094571Y-73412771D01*
X46094571Y-73412771D02*
X46056476Y-73488961D01*
X46056476Y-73488961D02*
X46018381Y-73527057D01*
X46018381Y-73527057D02*
X45942190Y-73565152D01*
X45942190Y-73565152D02*
X45789809Y-73565152D01*
X45789809Y-73565152D02*
X45713619Y-73603247D01*
X45713619Y-73603247D02*
X45675524Y-73641342D01*
X45675524Y-73641342D02*
X45637428Y-73717533D01*
X45637428Y-73717533D02*
X45637428Y-73869914D01*
X45637428Y-73869914D02*
X45675524Y-73946104D01*
X45675524Y-73946104D02*
X45713619Y-73984200D01*
X45713619Y-73984200D02*
X45789809Y-74022295D01*
X45789809Y-74022295D02*
X45942190Y-74022295D01*
X45942190Y-74022295D02*
X46018381Y-73984200D01*
X46018381Y-73984200D02*
X46056476Y-73946104D01*
X46056476Y-73946104D02*
X46094571Y-73869914D01*
X46094571Y-73869914D02*
X46094571Y-73717533D01*
X46094571Y-73717533D02*
X46056476Y-73641342D01*
X46056476Y-73641342D02*
X46018381Y-73603247D01*
X46018381Y-73603247D02*
X45942190Y-73565152D01*
X55742667Y-78086295D02*
X55476000Y-77705342D01*
X55285524Y-78086295D02*
X55285524Y-77286295D01*
X55285524Y-77286295D02*
X55590286Y-77286295D01*
X55590286Y-77286295D02*
X55666476Y-77324390D01*
X55666476Y-77324390D02*
X55704571Y-77362485D01*
X55704571Y-77362485D02*
X55742667Y-77438676D01*
X55742667Y-77438676D02*
X55742667Y-77552961D01*
X55742667Y-77552961D02*
X55704571Y-77629152D01*
X55704571Y-77629152D02*
X55666476Y-77667247D01*
X55666476Y-77667247D02*
X55590286Y-77705342D01*
X55590286Y-77705342D02*
X55285524Y-77705342D01*
X56009333Y-77286295D02*
X56504571Y-77286295D01*
X56504571Y-77286295D02*
X56237905Y-77591057D01*
X56237905Y-77591057D02*
X56352190Y-77591057D01*
X56352190Y-77591057D02*
X56428381Y-77629152D01*
X56428381Y-77629152D02*
X56466476Y-77667247D01*
X56466476Y-77667247D02*
X56504571Y-77743438D01*
X56504571Y-77743438D02*
X56504571Y-77933914D01*
X56504571Y-77933914D02*
X56466476Y-78010104D01*
X56466476Y-78010104D02*
X56428381Y-78048200D01*
X56428381Y-78048200D02*
X56352190Y-78086295D01*
X56352190Y-78086295D02*
X56123619Y-78086295D01*
X56123619Y-78086295D02*
X56047428Y-78048200D01*
X56047428Y-78048200D02*
X56009333Y-78010104D01*
X64128667Y-67926295D02*
X63862000Y-67545342D01*
X63671524Y-67926295D02*
X63671524Y-67126295D01*
X63671524Y-67126295D02*
X63976286Y-67126295D01*
X63976286Y-67126295D02*
X64052476Y-67164390D01*
X64052476Y-67164390D02*
X64090571Y-67202485D01*
X64090571Y-67202485D02*
X64128667Y-67278676D01*
X64128667Y-67278676D02*
X64128667Y-67392961D01*
X64128667Y-67392961D02*
X64090571Y-67469152D01*
X64090571Y-67469152D02*
X64052476Y-67507247D01*
X64052476Y-67507247D02*
X63976286Y-67545342D01*
X63976286Y-67545342D02*
X63671524Y-67545342D01*
X64585809Y-67469152D02*
X64509619Y-67431057D01*
X64509619Y-67431057D02*
X64471524Y-67392961D01*
X64471524Y-67392961D02*
X64433428Y-67316771D01*
X64433428Y-67316771D02*
X64433428Y-67278676D01*
X64433428Y-67278676D02*
X64471524Y-67202485D01*
X64471524Y-67202485D02*
X64509619Y-67164390D01*
X64509619Y-67164390D02*
X64585809Y-67126295D01*
X64585809Y-67126295D02*
X64738190Y-67126295D01*
X64738190Y-67126295D02*
X64814381Y-67164390D01*
X64814381Y-67164390D02*
X64852476Y-67202485D01*
X64852476Y-67202485D02*
X64890571Y-67278676D01*
X64890571Y-67278676D02*
X64890571Y-67316771D01*
X64890571Y-67316771D02*
X64852476Y-67392961D01*
X64852476Y-67392961D02*
X64814381Y-67431057D01*
X64814381Y-67431057D02*
X64738190Y-67469152D01*
X64738190Y-67469152D02*
X64585809Y-67469152D01*
X64585809Y-67469152D02*
X64509619Y-67507247D01*
X64509619Y-67507247D02*
X64471524Y-67545342D01*
X64471524Y-67545342D02*
X64433428Y-67621533D01*
X64433428Y-67621533D02*
X64433428Y-67773914D01*
X64433428Y-67773914D02*
X64471524Y-67850104D01*
X64471524Y-67850104D02*
X64509619Y-67888200D01*
X64509619Y-67888200D02*
X64585809Y-67926295D01*
X64585809Y-67926295D02*
X64738190Y-67926295D01*
X64738190Y-67926295D02*
X64814381Y-67888200D01*
X64814381Y-67888200D02*
X64852476Y-67850104D01*
X64852476Y-67850104D02*
X64890571Y-67773914D01*
X64890571Y-67773914D02*
X64890571Y-67621533D01*
X64890571Y-67621533D02*
X64852476Y-67545342D01*
X64852476Y-67545342D02*
X64814381Y-67507247D01*
X64814381Y-67507247D02*
X64738190Y-67469152D01*
X69259524Y-81134295D02*
X69259524Y-80334295D01*
X69259524Y-80334295D02*
X69450000Y-80334295D01*
X69450000Y-80334295D02*
X69564286Y-80372390D01*
X69564286Y-80372390D02*
X69640476Y-80448580D01*
X69640476Y-80448580D02*
X69678571Y-80524771D01*
X69678571Y-80524771D02*
X69716667Y-80677152D01*
X69716667Y-80677152D02*
X69716667Y-80791438D01*
X69716667Y-80791438D02*
X69678571Y-80943819D01*
X69678571Y-80943819D02*
X69640476Y-81020009D01*
X69640476Y-81020009D02*
X69564286Y-81096200D01*
X69564286Y-81096200D02*
X69450000Y-81134295D01*
X69450000Y-81134295D02*
X69259524Y-81134295D01*
X70478571Y-81134295D02*
X70021428Y-81134295D01*
X70250000Y-81134295D02*
X70250000Y-80334295D01*
X70250000Y-80334295D02*
X70173809Y-80448580D01*
X70173809Y-80448580D02*
X70097619Y-80524771D01*
X70097619Y-80524771D02*
X70021428Y-80562866D01*
X47872667Y-78086295D02*
X47606000Y-77705342D01*
X47415524Y-78086295D02*
X47415524Y-77286295D01*
X47415524Y-77286295D02*
X47720286Y-77286295D01*
X47720286Y-77286295D02*
X47796476Y-77324390D01*
X47796476Y-77324390D02*
X47834571Y-77362485D01*
X47834571Y-77362485D02*
X47872667Y-77438676D01*
X47872667Y-77438676D02*
X47872667Y-77552961D01*
X47872667Y-77552961D02*
X47834571Y-77629152D01*
X47834571Y-77629152D02*
X47796476Y-77667247D01*
X47796476Y-77667247D02*
X47720286Y-77705342D01*
X47720286Y-77705342D02*
X47415524Y-77705342D01*
X48177428Y-77362485D02*
X48215524Y-77324390D01*
X48215524Y-77324390D02*
X48291714Y-77286295D01*
X48291714Y-77286295D02*
X48482190Y-77286295D01*
X48482190Y-77286295D02*
X48558381Y-77324390D01*
X48558381Y-77324390D02*
X48596476Y-77362485D01*
X48596476Y-77362485D02*
X48634571Y-77438676D01*
X48634571Y-77438676D02*
X48634571Y-77514866D01*
X48634571Y-77514866D02*
X48596476Y-77629152D01*
X48596476Y-77629152D02*
X48139333Y-78086295D01*
X48139333Y-78086295D02*
X48634571Y-78086295D01*
X48122667Y-62925604D02*
X48084571Y-62963700D01*
X48084571Y-62963700D02*
X47970286Y-63001795D01*
X47970286Y-63001795D02*
X47894095Y-63001795D01*
X47894095Y-63001795D02*
X47779809Y-62963700D01*
X47779809Y-62963700D02*
X47703619Y-62887509D01*
X47703619Y-62887509D02*
X47665524Y-62811319D01*
X47665524Y-62811319D02*
X47627428Y-62658938D01*
X47627428Y-62658938D02*
X47627428Y-62544652D01*
X47627428Y-62544652D02*
X47665524Y-62392271D01*
X47665524Y-62392271D02*
X47703619Y-62316080D01*
X47703619Y-62316080D02*
X47779809Y-62239890D01*
X47779809Y-62239890D02*
X47894095Y-62201795D01*
X47894095Y-62201795D02*
X47970286Y-62201795D01*
X47970286Y-62201795D02*
X48084571Y-62239890D01*
X48084571Y-62239890D02*
X48122667Y-62277985D01*
X48808381Y-62468461D02*
X48808381Y-63001795D01*
X48617905Y-62163700D02*
X48427428Y-62735128D01*
X48427428Y-62735128D02*
X48922667Y-62735128D01*
X60064667Y-63405104D02*
X60026571Y-63443200D01*
X60026571Y-63443200D02*
X59912286Y-63481295D01*
X59912286Y-63481295D02*
X59836095Y-63481295D01*
X59836095Y-63481295D02*
X59721809Y-63443200D01*
X59721809Y-63443200D02*
X59645619Y-63367009D01*
X59645619Y-63367009D02*
X59607524Y-63290819D01*
X59607524Y-63290819D02*
X59569428Y-63138438D01*
X59569428Y-63138438D02*
X59569428Y-63024152D01*
X59569428Y-63024152D02*
X59607524Y-62871771D01*
X59607524Y-62871771D02*
X59645619Y-62795580D01*
X59645619Y-62795580D02*
X59721809Y-62719390D01*
X59721809Y-62719390D02*
X59836095Y-62681295D01*
X59836095Y-62681295D02*
X59912286Y-62681295D01*
X59912286Y-62681295D02*
X60026571Y-62719390D01*
X60026571Y-62719390D02*
X60064667Y-62757485D01*
X60331333Y-62681295D02*
X60826571Y-62681295D01*
X60826571Y-62681295D02*
X60559905Y-62986057D01*
X60559905Y-62986057D02*
X60674190Y-62986057D01*
X60674190Y-62986057D02*
X60750381Y-63024152D01*
X60750381Y-63024152D02*
X60788476Y-63062247D01*
X60788476Y-63062247D02*
X60826571Y-63138438D01*
X60826571Y-63138438D02*
X60826571Y-63328914D01*
X60826571Y-63328914D02*
X60788476Y-63405104D01*
X60788476Y-63405104D02*
X60750381Y-63443200D01*
X60750381Y-63443200D02*
X60674190Y-63481295D01*
X60674190Y-63481295D02*
X60445619Y-63481295D01*
X60445619Y-63481295D02*
X60369428Y-63443200D01*
X60369428Y-63443200D02*
X60331333Y-63405104D01*
X65398667Y-61322295D02*
X65132000Y-60941342D01*
X64941524Y-61322295D02*
X64941524Y-60522295D01*
X64941524Y-60522295D02*
X65246286Y-60522295D01*
X65246286Y-60522295D02*
X65322476Y-60560390D01*
X65322476Y-60560390D02*
X65360571Y-60598485D01*
X65360571Y-60598485D02*
X65398667Y-60674676D01*
X65398667Y-60674676D02*
X65398667Y-60788961D01*
X65398667Y-60788961D02*
X65360571Y-60865152D01*
X65360571Y-60865152D02*
X65322476Y-60903247D01*
X65322476Y-60903247D02*
X65246286Y-60941342D01*
X65246286Y-60941342D02*
X64941524Y-60941342D01*
X65665333Y-60522295D02*
X66198667Y-60522295D01*
X66198667Y-60522295D02*
X65855809Y-61322295D01*
X45332667Y-72422104D02*
X45294571Y-72460200D01*
X45294571Y-72460200D02*
X45180286Y-72498295D01*
X45180286Y-72498295D02*
X45104095Y-72498295D01*
X45104095Y-72498295D02*
X44989809Y-72460200D01*
X44989809Y-72460200D02*
X44913619Y-72384009D01*
X44913619Y-72384009D02*
X44875524Y-72307819D01*
X44875524Y-72307819D02*
X44837428Y-72155438D01*
X44837428Y-72155438D02*
X44837428Y-72041152D01*
X44837428Y-72041152D02*
X44875524Y-71888771D01*
X44875524Y-71888771D02*
X44913619Y-71812580D01*
X44913619Y-71812580D02*
X44989809Y-71736390D01*
X44989809Y-71736390D02*
X45104095Y-71698295D01*
X45104095Y-71698295D02*
X45180286Y-71698295D01*
X45180286Y-71698295D02*
X45294571Y-71736390D01*
X45294571Y-71736390D02*
X45332667Y-71774485D01*
X45599333Y-71698295D02*
X46132667Y-71698295D01*
X46132667Y-71698295D02*
X45789809Y-72498295D01*
X44061142Y-69826104D02*
X44013523Y-69864200D01*
X44013523Y-69864200D02*
X43870666Y-69902295D01*
X43870666Y-69902295D02*
X43775428Y-69902295D01*
X43775428Y-69902295D02*
X43632571Y-69864200D01*
X43632571Y-69864200D02*
X43537333Y-69788009D01*
X43537333Y-69788009D02*
X43489714Y-69711819D01*
X43489714Y-69711819D02*
X43442095Y-69559438D01*
X43442095Y-69559438D02*
X43442095Y-69445152D01*
X43442095Y-69445152D02*
X43489714Y-69292771D01*
X43489714Y-69292771D02*
X43537333Y-69216580D01*
X43537333Y-69216580D02*
X43632571Y-69140390D01*
X43632571Y-69140390D02*
X43775428Y-69102295D01*
X43775428Y-69102295D02*
X43870666Y-69102295D01*
X43870666Y-69102295D02*
X44013523Y-69140390D01*
X44013523Y-69140390D02*
X44061142Y-69178485D01*
X45013523Y-69902295D02*
X44442095Y-69902295D01*
X44727809Y-69902295D02*
X44727809Y-69102295D01*
X44727809Y-69102295D02*
X44632571Y-69216580D01*
X44632571Y-69216580D02*
X44537333Y-69292771D01*
X44537333Y-69292771D02*
X44442095Y-69330866D01*
X45965904Y-69902295D02*
X45394476Y-69902295D01*
X45680190Y-69902295D02*
X45680190Y-69102295D01*
X45680190Y-69102295D02*
X45584952Y-69216580D01*
X45584952Y-69216580D02*
X45489714Y-69292771D01*
X45489714Y-69292771D02*
X45394476Y-69330866D01*
X56254667Y-74598104D02*
X56216571Y-74636200D01*
X56216571Y-74636200D02*
X56102286Y-74674295D01*
X56102286Y-74674295D02*
X56026095Y-74674295D01*
X56026095Y-74674295D02*
X55911809Y-74636200D01*
X55911809Y-74636200D02*
X55835619Y-74560009D01*
X55835619Y-74560009D02*
X55797524Y-74483819D01*
X55797524Y-74483819D02*
X55759428Y-74331438D01*
X55759428Y-74331438D02*
X55759428Y-74217152D01*
X55759428Y-74217152D02*
X55797524Y-74064771D01*
X55797524Y-74064771D02*
X55835619Y-73988580D01*
X55835619Y-73988580D02*
X55911809Y-73912390D01*
X55911809Y-73912390D02*
X56026095Y-73874295D01*
X56026095Y-73874295D02*
X56102286Y-73874295D01*
X56102286Y-73874295D02*
X56216571Y-73912390D01*
X56216571Y-73912390D02*
X56254667Y-73950485D01*
X56559428Y-73950485D02*
X56597524Y-73912390D01*
X56597524Y-73912390D02*
X56673714Y-73874295D01*
X56673714Y-73874295D02*
X56864190Y-73874295D01*
X56864190Y-73874295D02*
X56940381Y-73912390D01*
X56940381Y-73912390D02*
X56978476Y-73950485D01*
X56978476Y-73950485D02*
X57016571Y-74026676D01*
X57016571Y-74026676D02*
X57016571Y-74102866D01*
X57016571Y-74102866D02*
X56978476Y-74217152D01*
X56978476Y-74217152D02*
X56521333Y-74674295D01*
X56521333Y-74674295D02*
X57016571Y-74674295D01*
X64128667Y-64624295D02*
X63862000Y-64243342D01*
X63671524Y-64624295D02*
X63671524Y-63824295D01*
X63671524Y-63824295D02*
X63976286Y-63824295D01*
X63976286Y-63824295D02*
X64052476Y-63862390D01*
X64052476Y-63862390D02*
X64090571Y-63900485D01*
X64090571Y-63900485D02*
X64128667Y-63976676D01*
X64128667Y-63976676D02*
X64128667Y-64090961D01*
X64128667Y-64090961D02*
X64090571Y-64167152D01*
X64090571Y-64167152D02*
X64052476Y-64205247D01*
X64052476Y-64205247D02*
X63976286Y-64243342D01*
X63976286Y-64243342D02*
X63671524Y-64243342D01*
X64814381Y-63824295D02*
X64662000Y-63824295D01*
X64662000Y-63824295D02*
X64585809Y-63862390D01*
X64585809Y-63862390D02*
X64547714Y-63900485D01*
X64547714Y-63900485D02*
X64471524Y-64014771D01*
X64471524Y-64014771D02*
X64433428Y-64167152D01*
X64433428Y-64167152D02*
X64433428Y-64471914D01*
X64433428Y-64471914D02*
X64471524Y-64548104D01*
X64471524Y-64548104D02*
X64509619Y-64586200D01*
X64509619Y-64586200D02*
X64585809Y-64624295D01*
X64585809Y-64624295D02*
X64738190Y-64624295D01*
X64738190Y-64624295D02*
X64814381Y-64586200D01*
X64814381Y-64586200D02*
X64852476Y-64548104D01*
X64852476Y-64548104D02*
X64890571Y-64471914D01*
X64890571Y-64471914D02*
X64890571Y-64281438D01*
X64890571Y-64281438D02*
X64852476Y-64205247D01*
X64852476Y-64205247D02*
X64814381Y-64167152D01*
X64814381Y-64167152D02*
X64738190Y-64129057D01*
X64738190Y-64129057D02*
X64585809Y-64129057D01*
X64585809Y-64129057D02*
X64509619Y-64167152D01*
X64509619Y-64167152D02*
X64471524Y-64205247D01*
X64471524Y-64205247D02*
X64433428Y-64281438D01*
X52444667Y-74454104D02*
X52406571Y-74492200D01*
X52406571Y-74492200D02*
X52292286Y-74530295D01*
X52292286Y-74530295D02*
X52216095Y-74530295D01*
X52216095Y-74530295D02*
X52101809Y-74492200D01*
X52101809Y-74492200D02*
X52025619Y-74416009D01*
X52025619Y-74416009D02*
X51987524Y-74339819D01*
X51987524Y-74339819D02*
X51949428Y-74187438D01*
X51949428Y-74187438D02*
X51949428Y-74073152D01*
X51949428Y-74073152D02*
X51987524Y-73920771D01*
X51987524Y-73920771D02*
X52025619Y-73844580D01*
X52025619Y-73844580D02*
X52101809Y-73768390D01*
X52101809Y-73768390D02*
X52216095Y-73730295D01*
X52216095Y-73730295D02*
X52292286Y-73730295D01*
X52292286Y-73730295D02*
X52406571Y-73768390D01*
X52406571Y-73768390D02*
X52444667Y-73806485D01*
X52825619Y-74530295D02*
X52978000Y-74530295D01*
X52978000Y-74530295D02*
X53054190Y-74492200D01*
X53054190Y-74492200D02*
X53092286Y-74454104D01*
X53092286Y-74454104D02*
X53168476Y-74339819D01*
X53168476Y-74339819D02*
X53206571Y-74187438D01*
X53206571Y-74187438D02*
X53206571Y-73882676D01*
X53206571Y-73882676D02*
X53168476Y-73806485D01*
X53168476Y-73806485D02*
X53130381Y-73768390D01*
X53130381Y-73768390D02*
X53054190Y-73730295D01*
X53054190Y-73730295D02*
X52901809Y-73730295D01*
X52901809Y-73730295D02*
X52825619Y-73768390D01*
X52825619Y-73768390D02*
X52787524Y-73806485D01*
X52787524Y-73806485D02*
X52749428Y-73882676D01*
X52749428Y-73882676D02*
X52749428Y-74073152D01*
X52749428Y-74073152D02*
X52787524Y-74149342D01*
X52787524Y-74149342D02*
X52825619Y-74187438D01*
X52825619Y-74187438D02*
X52901809Y-74225533D01*
X52901809Y-74225533D02*
X53054190Y-74225533D01*
X53054190Y-74225533D02*
X53130381Y-74187438D01*
X53130381Y-74187438D02*
X53168476Y-74149342D01*
X53168476Y-74149342D02*
X53206571Y-74073152D01*
X55778476Y-60268295D02*
X55778476Y-60915914D01*
X55778476Y-60915914D02*
X55816571Y-60992104D01*
X55816571Y-60992104D02*
X55854666Y-61030200D01*
X55854666Y-61030200D02*
X55930857Y-61068295D01*
X55930857Y-61068295D02*
X56083238Y-61068295D01*
X56083238Y-61068295D02*
X56159428Y-61030200D01*
X56159428Y-61030200D02*
X56197523Y-60992104D01*
X56197523Y-60992104D02*
X56235619Y-60915914D01*
X56235619Y-60915914D02*
X56235619Y-60268295D01*
X57035618Y-61068295D02*
X56578475Y-61068295D01*
X56807047Y-61068295D02*
X56807047Y-60268295D01*
X56807047Y-60268295D02*
X56730856Y-60382580D01*
X56730856Y-60382580D02*
X56654666Y-60458771D01*
X56654666Y-60458771D02*
X56578475Y-60496866D01*
X51636333Y-58746580D02*
X51588714Y-58794200D01*
X51588714Y-58794200D02*
X51445857Y-58841819D01*
X51445857Y-58841819D02*
X51350619Y-58841819D01*
X51350619Y-58841819D02*
X51207762Y-58794200D01*
X51207762Y-58794200D02*
X51112524Y-58698961D01*
X51112524Y-58698961D02*
X51064905Y-58603723D01*
X51064905Y-58603723D02*
X51017286Y-58413247D01*
X51017286Y-58413247D02*
X51017286Y-58270390D01*
X51017286Y-58270390D02*
X51064905Y-58079914D01*
X51064905Y-58079914D02*
X51112524Y-57984676D01*
X51112524Y-57984676D02*
X51207762Y-57889438D01*
X51207762Y-57889438D02*
X51350619Y-57841819D01*
X51350619Y-57841819D02*
X51445857Y-57841819D01*
X51445857Y-57841819D02*
X51588714Y-57889438D01*
X51588714Y-57889438D02*
X51636333Y-57937057D01*
X52541095Y-57841819D02*
X52064905Y-57841819D01*
X52064905Y-57841819D02*
X52017286Y-58318009D01*
X52017286Y-58318009D02*
X52064905Y-58270390D01*
X52064905Y-58270390D02*
X52160143Y-58222771D01*
X52160143Y-58222771D02*
X52398238Y-58222771D01*
X52398238Y-58222771D02*
X52493476Y-58270390D01*
X52493476Y-58270390D02*
X52541095Y-58318009D01*
X52541095Y-58318009D02*
X52588714Y-58413247D01*
X52588714Y-58413247D02*
X52588714Y-58651342D01*
X52588714Y-58651342D02*
X52541095Y-58746580D01*
X52541095Y-58746580D02*
X52493476Y-58794200D01*
X52493476Y-58794200D02*
X52398238Y-58841819D01*
X52398238Y-58841819D02*
X52160143Y-58841819D01*
X52160143Y-58841819D02*
X52064905Y-58794200D01*
X52064905Y-58794200D02*
X52017286Y-58746580D01*
D11*
%TO.C,J2*%
X68386000Y-53788000D02*
X68386000Y-55118000D01*
X67056000Y-53788000D02*
X68386000Y-53788000D01*
X65786000Y-53788000D02*
X58106000Y-53788000D01*
X65786000Y-53788000D02*
X65786000Y-56448000D01*
X58106000Y-53788000D02*
X58106000Y-56448000D01*
X65786000Y-56448000D02*
X58106000Y-56448000D01*
%TO.C,C12*%
X61526748Y-72671000D02*
X62049252Y-72671000D01*
X61526748Y-74141000D02*
X62049252Y-74141000D01*
%TO.C,C1*%
X51680164Y-61108000D02*
X51895836Y-61108000D01*
X51680164Y-61828000D02*
X51895836Y-61828000D01*
%TO.C,C6*%
X48150000Y-68461836D02*
X48150000Y-68246164D01*
X48870000Y-68461836D02*
X48870000Y-68246164D01*
%TO.C,FB1*%
X49786000Y-72506721D02*
X49786000Y-72832279D01*
X48766000Y-72506721D02*
X48766000Y-72832279D01*
%TO.C,Y1*%
X44492000Y-64658000D02*
X41192000Y-64658000D01*
X41192000Y-64658000D02*
X41192000Y-68658000D01*
%TO.C,C13*%
X65813000Y-77797252D02*
X65813000Y-77274748D01*
X67283000Y-77797252D02*
X67283000Y-77274748D01*
%TO.C,C10*%
X44852000Y-65555836D02*
X44852000Y-65340164D01*
X45572000Y-65555836D02*
X45572000Y-65340164D01*
%TO.C,R5*%
X72746359Y-73026000D02*
X73053641Y-73026000D01*
X72746359Y-73786000D02*
X73053641Y-73786000D01*
%TO.C,U2*%
X65132000Y-75046000D02*
X65132000Y-81056000D01*
X58312000Y-77296000D02*
X58312000Y-81056000D01*
X65132000Y-81056000D02*
X63872000Y-81056000D01*
X58312000Y-81056000D02*
X59572000Y-81056000D01*
%TO.C,J4*%
X46168000Y-83118000D02*
X46168000Y-81788000D01*
X47498000Y-83118000D02*
X46168000Y-83118000D01*
X48768000Y-83118000D02*
X56448000Y-83118000D01*
X48768000Y-83118000D02*
X48768000Y-80458000D01*
X56448000Y-83118000D02*
X56448000Y-80458000D01*
X48768000Y-80458000D02*
X56448000Y-80458000D01*
%TO.C,R4*%
X41276000Y-60099641D02*
X41276000Y-59792359D01*
X42036000Y-60099641D02*
X42036000Y-59792359D01*
%TO.C,R1*%
X69597000Y-75591641D02*
X69597000Y-75284359D01*
X70357000Y-75591641D02*
X70357000Y-75284359D01*
%TO.C,C8*%
X47633836Y-73857500D02*
X47418164Y-73857500D01*
X47633836Y-73137500D02*
X47418164Y-73137500D01*
%TO.C,R3*%
X53438359Y-77344000D02*
X53745641Y-77344000D01*
X53438359Y-78104000D02*
X53745641Y-78104000D01*
%TO.C,J3*%
X55686000Y-53788000D02*
X55686000Y-55118000D01*
X54356000Y-53788000D02*
X55686000Y-53788000D01*
X53086000Y-53788000D02*
X45406000Y-53788000D01*
X53086000Y-53788000D02*
X53086000Y-56448000D01*
X45406000Y-53788000D02*
X45406000Y-56448000D01*
X53086000Y-56448000D02*
X45406000Y-56448000D01*
%TO.C,SW1*%
X38500000Y-59820000D02*
X37710000Y-59820000D01*
X36700000Y-60420000D02*
X36700000Y-66120000D01*
X39550000Y-61670000D02*
X39550000Y-63370000D01*
X39550000Y-64670000D02*
X39550000Y-64870000D01*
X37710000Y-66720000D02*
X38500000Y-66720000D01*
%TO.C,R8*%
X66166000Y-67158359D02*
X66166000Y-67465641D01*
X65406000Y-67158359D02*
X65406000Y-67465641D01*
%TO.C,D1*%
X70712000Y-77001000D02*
X69242000Y-77001000D01*
X69242000Y-77001000D02*
X69242000Y-79286000D01*
X70712000Y-79286000D02*
X70712000Y-77001000D01*
%TO.C,R2*%
X51459641Y-78104000D02*
X51152359Y-78104000D01*
X51459641Y-77344000D02*
X51152359Y-77344000D01*
%TO.C,C4*%
X48150000Y-64275336D02*
X48150000Y-64059664D01*
X48870000Y-64275336D02*
X48870000Y-64059664D01*
%TO.C,C3*%
X60554000Y-64563664D02*
X60554000Y-64779336D01*
X59834000Y-64563664D02*
X59834000Y-64779336D01*
%TO.C,R7*%
X67662359Y-60580000D02*
X67969641Y-60580000D01*
X67662359Y-61340000D02*
X67969641Y-61340000D01*
%TO.C,C7*%
X47633836Y-72333500D02*
X47418164Y-72333500D01*
X47633836Y-71613500D02*
X47418164Y-71613500D01*
%TO.C,C11*%
X44852000Y-67897836D02*
X44852000Y-67682164D01*
X45572000Y-67897836D02*
X45572000Y-67682164D01*
%TO.C,C2*%
X57285836Y-73512000D02*
X57070164Y-73512000D01*
X57285836Y-72792000D02*
X57070164Y-72792000D01*
%TO.C,J1*%
X70456000Y-72012000D02*
X72456000Y-72012000D01*
X74356000Y-72012000D02*
X76256000Y-72012000D01*
X76256000Y-72012000D02*
X76256000Y-62612000D01*
X70456000Y-62612000D02*
X72456000Y-62612000D01*
X74356000Y-62612000D02*
X76256000Y-62612000D01*
%TO.C,R6*%
X65406000Y-63909641D02*
X65406000Y-63602359D01*
X66166000Y-63909641D02*
X66166000Y-63602359D01*
%TO.C,C9*%
X51986164Y-72792000D02*
X52201836Y-72792000D01*
X51986164Y-73512000D02*
X52201836Y-73512000D01*
%TO.C,U1*%
X50746000Y-63700000D02*
X50746000Y-64150000D01*
X50746000Y-64150000D02*
X49456000Y-64150000D01*
X50746000Y-70920000D02*
X50746000Y-70470000D01*
X51196000Y-63700000D02*
X50746000Y-63700000D01*
X51196000Y-70920000D02*
X50746000Y-70920000D01*
X57516000Y-63700000D02*
X57966000Y-63700000D01*
X57516000Y-70920000D02*
X57966000Y-70920000D01*
X57966000Y-63700000D02*
X57966000Y-64150000D01*
X57966000Y-70920000D02*
X57966000Y-70470000D01*
%TO.C,C5*%
X51662420Y-59307000D02*
X51943580Y-59307000D01*
X51662420Y-60327000D02*
X51943580Y-60327000D01*
%TD*%
M02*
